/* XPM */
static char *result[] = {
/* columns rows colors chars-per-pixel */
"63 48 8 1 ",
"  c gray50",
". c #B9611B",
"X c #FF6730",
"o c #2AAD30",
"O c #FFC56D",
"+ c #565EF8",
"@ c #C3C3C3",
"# c None",
/* pixels */
"#################################oooooooooooo##################",
"#################################oooooooooooo##################",
"#################################oooooooooooo##################",
"########################............ooooooooooooooo############",
"########################............ooooooooooooooo############",
"########################............ooooooooooooooo############",
"#####################..................ooooooOOOooooooooo######",
"#####################..................ooooooOOOooooooooo######",
"#####################..................ooooooOOOooooooooo######",
"########################..................OOOOOOoooooooooooo###",
"########################..................OOOOOOoooooooooooo###",
"########################..................OOOOOOoooooooooooo###",
"########################OOOoooOOOOOO...OOOOOOOOOoooooo###ooo###",
"########################OOOoooOOOOOO...OOOOOOOOOoooooo###ooo###",
"########################OOOoooOOOOOO...OOOOOOOOOoooooo###ooo###",
"##################OOOOOOOOO...OOOOOO...OOOOOO######ooo#########",
"##################OOOOOOOOO...OOOOOO...OOOOOO######ooo#########",
"##################OOOOOOOOO...OOOOOO...OOOOOO######ooo#########",
"########################OOOOOOOOOOOOOOOOOO@@@@@@@@@@@@@@@@@@@@@",
"########################OOOOOOOOOOOOOOOOOO@@@@@@@@@@@@@@@@@@@@@",
"########################OOOOOOOOOOOOOOOOOO@@@@@@@@@@@@@@@@@@@@@",
"########################OOOOOOOOOOOOoooooo@@@+++++++++++++++@@@",
"########################OOOOOOOOOOOOoooooo@@@+++++++++++++++@@@",
"########################OOOOOOOOOOOOoooooo@@@+++++++++++++++@@@",
"###@@@@@@@@@@@@@@@@@@@@@@@@@@@oooooooooooo@@@+++@@@+++@@@+++@@@",
"###@@@@@@@@@@@@@@@@@@@@@@@@@@@oooooooooooo@@@+++@@@+++@@@+++@@@",
"###@@@@@@@@@@@@@@@@@@@@@@@@@@@oooooooooooo@@@+++@@@+++@@@+++@@@",
"@@@@@@                     oooOOOOOOOOO...@@@++++++@@@++++++@@@",
"@@@@@@                     oooOOOOOOOOO...@@@++++++@@@++++++@@@",
"@@@@@@                     oooOOOOOOOOO...@@@++++++@@@++++++@@@",
"###@@@@@@@@@@@@@@@@@@@@@@@@oooOOOOOOOOO...@@@+++XXX+++XXX+++@@@",
"###@@@@@@@@@@@@@@@@@@@@@@@@oooOOOOOOOOO...@@@+++XXX+++XXX+++@@@",
"###@@@@@@@@@@@@@@@@@@@@@@@@oooOOOOOOOOO...@@@+++XXX+++XXX+++@@@",
"###########################...oooOOOOOO...@@@+++XXXXXXXXX+++@@@",
"###########################...oooOOOOOO...@@@+++XXXXXXXXX+++@@@",
"###########################...oooOOOOOO...@@@+++XXXXXXXXX+++@@@",
"###########################.........oooooo@@@++++++XXX++++++@@@",
"###########################.........oooooo@@@++++++XXX++++++@@@",
"###########################.........oooooo@@@++++++XXX++++++@@@",
"###########################oooooooooooooooooo@@@+++++++++@@@###",
"###########################oooooooooooooooooo@@@+++++++++@@@###",
"###########################oooooooooooooooooo@@@+++++++++@@@###",
"##############################.........######...@@@@@@@@@######",
"##############################.........######...@@@@@@@@@######",
"##############################.........######...@@@@@@@@@######",
"###########################............###............#########",
"###########################............###............#########",
"###########################............###............#########"
};
