/* XPM */
static char *result[] = {
/* columns rows colors chars-per-pixel */
"72 50 8 1 ",
"  c #B9611B",
". c #FF6730",
"X c #2AAD30",
"o c #FFC56D",
"O c #565EF8",
"+ c #00A8F3",
"@ c #C3C3C3",
"# c None",
/* pixels */
"#################################OOO####################################",
"#################################OOO####################################",
"#################################OOO####################################",
"##############################OOOOOO#########XXXXXXXXXXXX###############",
"##############################OOOOOO#########XXXXXXXXXXXX###############",
"##############################OOOOOO#########XXXXXXXXXXXX###############",
"###########################OOOOOO@@@            XXXXXXXXXXXXXXX#########",
"###########################OOOOOO@@@            XXXXXXXXXXXXXXX#########",
"###########################OOOOOO@@@            XXXXXXXXXXXXXXX#########",
"###########################OOOOOO@@@               XXXXXXoooXXXXXXXXX###",
"###########################OOOOOO@@@               XXXXXXoooXXXXXXXXX###",
"###########################OOOOOO@@@               XXXXXXoooXXXXXXXXX###",
"########################OOOOOO###@@@                  ooooooXXXXXXXXXXXX",
"########################OOOOOO###@@@                  ooooooXXXXXXXXXXXX",
"########################OOOOOO###@@@                  ooooooXXXXXXXXXXXX",
"########################OOOOOO###@@@oooXXXoooooo   oooooooooXXXXXX###XXX",
"########################OOOOOO###@@@oooXXXoooooo   oooooooooXXXXXX###XXX",
"########################OOOOOO###@@@oooXXXoooooo   oooooooooXXXXXX###XXX",
"######@@@@@@############OOOOOOooo@@@ooo   oooooo   oooooo      @@@@@@@@@",
"######@@@@@@############OOOOOOooo@@@ooo   oooooo   oooooo      @@@@@@@@@",
"######@@@@@@############OOOOOOooo@@@ooo   oooooo   oooooo      @@@@@@@@@",
"@@@@@@@@@++++++++++++++++++++++++ooooooooo                     @@@OOOOOO",
"@@@@@@@@@++++++++++++++++++++++++ooooooooo                     @@@OOOOOO",
"@@@@@@@@@++++++++++++++++++++++++ooooooooo                     @@@OOOOOO",
"######@@@@@@######ooooooOOOooo   ooooooooo                  ###@@@OOO@@@",
"######@@@@@@######ooooooOOOooo   ooooooooo                  ###@@@OOO@@@",
"######@@@@@@######ooooooOOOooo   ooooooooo                  ###@@@OOO@@@",
"#####################ooooooOOO   @@@oooooo               XXXXXX@@@OOO@@@",
"#####################ooooooOOO   @@@oooooo               XXXXXX@@@OOO@@@",
"#####################ooooooOOO   @@@oooooo               XXXXXX@@@OOO@@@",
"#####################ooooooOOO   @@@   XXXXXXXXXXXXXXXXXXXXXXXX@@@OOO...",
"#####################ooooooOOO   @@@   XXXXXXXXXXXXXXXXXXXXXXXX@@@OOO...",
"#####################ooooooOOO   @@@   XXXXXXXXXXXXXXXXXXXXXXXX@@@OOO...",
"###########################OOOOOO@@@###         XXXXXXXXXXXXXXX@@@OOO...",
"###########################OOOOOO@@@###         XXXXXXXXXXXXXXX@@@OOO...",
"###########################OOOOOO@@@###         XXXXXXXXXXXXXXX@@@OOO...",
"###########################OOOOOO@@@###   XXX                  @@@OOO...",
"###########################OOOOOO@@@###   XXX                  @@@OOO...",
"###########################OOOOOO@@@###   XXX                  @@@OOO...",
"##############################OOOOOO###         XXXXXXXXXXXXXXX@@@@@@OOO",
"##############################OOOOOO###         XXXXXXXXXXXXXXX@@@@@@OOO",
"##############################OOOOOO###         XXXXXXXXXXXXXXX@@@@@@OOO",
"#################################OOO###XXXXXXXXXXXXXXXXXXXXXXXXXXX@@@@@@",
"#################################OOO###XXXXXXXXXXXXXXXXXXXXXXXXXXX@@@@@@",
"#################################OOO###XXXXXXXXXXXXXXXXXXXXXXXXXXX@@@@@@",
"#######################################         ######         #########",
"#######################################         ######         #########",
"#######################################         ######         #########",
"####################################            ######            ######",
"####################################            ######            ######"
};
