/* XPM */
static char *result[] = {
/* columns rows colors chars-per-pixel */
"48 51 7 1 ",
"  c #B9611B",
". c #FF6730",
"X c #2AAD30",
"o c #FFC56D",
"O c #565EF8",
"+ c #C3C3C3",
"@ c None",
/* pixels */
"ooooooooo@@@@@@XXXXXXXXXXXX@@@@@@@@@@@@@@@@@@@@@",
"ooooooooo@@@@@@XXXXXXXXXXXX@@@@@@@@@@@@@@@@@@@@@",
"ooooooooo@@@@@@XXXXXXXXXXXX@@@@@@@@@@@@@@@@@@@@@",
"oooooo            XXXXXXXXXXXXXXX@@@@@@@@@@@@@@@",
"oooooo            XXXXXXXXXXXXXXX@@@@@@@@@@@@@@@",
"oooooo            XXXXXXXXXXXXXXX@@@@@@@@@@@@@@@",
"ooo                  XXXXXXoooXXXXXX@@@@@@@@@@@@",
"ooo                  XXXXXXoooXXXXXX@@@@@@@@@@@@",
"ooo                  XXXXXXoooXXXXXX@@@@@@@@@@@@",
"                        ooooooXXXXXXXXX@@@@@@@@@",
"                        ooooooXXXXXXXXX@@@@@@@@@",
"                        ooooooXXXXXXXXX@@@@@@@@@",
"      oooXXXoooooo   oooooooooXXXXXXXXXXXX@@@@@@",
"      oooXXXoooooo   oooooooooXXXXXXXXXXXX@@@@@@",
"      oooXXXoooooo   oooooooooXXXXXXXXXXXX@@@@@@",
"ooooooooo   oooooo   oooooo      XXX@@@XXX@@@@@@",
"ooooooooo   oooooo   oooooo      XXX@@@XXX@@@@@@",
"ooooooooo   oooooo   oooooo      XXX@@@XXX@@@@@@",
"@@@@@@oooooooooooooooooo   +++++++++++++++++++++",
"@@@@@@oooooooooooooooooo   +++++++++++++++++++++",
"@@@@@@oooooooooooooooooo   +++++++++++++++++++++",
"@@@@@@ooooooooooooXXXXXXXXX+++OOOOOOOOOOOOOOO+++",
"@@@@@@ooooooooooooXXXXXXXXX+++OOOOOOOOOOOOOOO+++",
"@@@@@@ooooooooooooXXXXXXXXX+++OOOOOOOOOOOOOOO+++",
"@@@@@@@@@@@@XXXXXXXXXXXXXXX+++OOO+++OOO+++OOO+++",
"@@@@@@@@@@@@XXXXXXXXXXXXXXX+++OOO+++OOO+++OOO+++",
"@@@@@@@@@@@@XXXXXXXXXXXXXXX+++OOO+++OOO+++OOO+++",
"@@@@@@@@@XXXXXXooooooooo   +++OOOOOO+++OOOOOO+++",
"@@@@@@@@@XXXXXXooooooooo   +++OOOOOO+++OOOOOO+++",
"@@@@@@@@@XXXXXXooooooooo   +++OOOOOO+++OOOOOO+++",
"@@@@@@@@@XXXXXXooooooooo   +++OOO...OOO...OOO+++",
"@@@@@@@@@XXXXXXooooooooo   +++OOO...OOO...OOO+++",
"@@@@@@@@@XXXXXXooooooooo   +++OOO...OOO...OOO+++",
"@@@   @@@      XXXoooooo   +++OOO.........OOO+++",
"@@@   @@@      XXXoooooo   +++OOO.........OOO+++",
"@@@   @@@      XXXoooooo   +++OOO.........OOO+++",
"@@@      XXX               +++OOOOOO...OOOOOO+++",
"@@@      XXX               +++OOOOOO...OOOOOO+++",
"@@@      XXX               +++OOOOOO...OOOOOO+++",
"@@@         XXXXXXXXXXXXXXXXXX+++OOOOOOOOO+++@@@",
"@@@         XXXXXXXXXXXXXXXXXX+++OOOOOOOOO+++@@@",
"@@@         XXXXXXXXXXXXXXXXXX+++OOOOOOOOO+++@@@",
"@@@         @@@XXXXXXXXXXXXXXX   +++++++++@@@@@@",
"@@@         @@@XXXXXXXXXXXXXXX   +++++++++@@@@@@",
"@@@         @@@XXXXXXXXXXXXXXX   +++++++++@@@@@@",
"@@@@@@@@@@@@@@@@@@@@@@@@@@@            @@@@@@@@@",
"@@@@@@@@@@@@@@@@@@@@@@@@@@@            @@@@@@@@@",
"@@@@@@@@@@@@@@@@@@@@@@@@@@@            @@@@@@@@@",
"@@@@@@@@@@@@@@@@@@@@@@@@@@@@@@@@@      @@@@@@@@@",
"@@@@@@@@@@@@@@@@@@@@@@@@@@@@@@@@@      @@@@@@@@@",
"@@@@@@@@@@@@@@@@@@@@@@@@@@@@@@@@@      @@@@@@@@@"
};
