/* XPM */
static char *result[] = {
/* columns rows colors chars-per-pixel */
"45 48 8 1 ",
"  c #B9611B",
". c #FF6730",
"X c #2AAD30",
"o c #FFC56D",
"O c #FFC66D",
"+ c #565EF8",
"@ c #C3C3C3",
"# c None",
/* pixels */
"###############XXXXXXXXXXXX##################",
"###############XXXXXXXXXXXX##################",
"###############XXXXXXXXXXXX##################",
"######            XXXXXXXXXXXXXXX############",
"######            XXXXXXXXXXXXXXX############",
"######            XXXXXXXXXXXXXXX############",
"###                  XXXXXXOOOXXXXXXXXX######",
"###                  XXXXXXOOOXXXXXXXXX######",
"###                  XXXXXXOOOXXXXXXXXX######",
"######                  OOOOOOXXXXXXXXXXXX###",
"######                  OOOOOOXXXXXXXXXXXX###",
"######                  OOOOOOXXXXXXXXXXXX###",
"######OOOXXXOOOOOO   OOOOOOOOOXXXXXX###XXX###",
"######OOOXXXOOOOOO   OOOOOOOOOXXXXXX###XXX###",
"######OOOXXXOOOOOO   OOOOOOOOOXXXXXX###XXX###",
"OOOOOOOOO   OOOOOO   OOOOOO      XXX#########",
"OOOOOOOOO   OOOOOO   OOOOOO      XXX#########",
"OOOOOOOOO   OOOOOO   OOOOOO      XXX#########",
"######OOOOOOOOOOOOOOOOOO@@@@@@@@@@@@@@@@@@@@@",
"######OOOOOOOOOOOOOOOOOO@@@@@@@@@@@@@@@@@@@@@",
"######OOOOOOOOOOOOOOOOOO@@@@@@@@@@@@@@@@@@@@@",
"######ooooooooooooXXXXXX@@@+++++++++++++++@@@",
"######ooooooooooooXXXXXX@@@+++++++++++++++@@@",
"######ooooooooooooXXXXXX@@@+++++++++++++++@@@",
"############XXXXXXXXXXXX@@@+++@@@+++@@@+++@@@",
"############XXXXXXXXXXXX@@@+++@@@+++@@@+++@@@",
"############XXXXXXXXXXXX@@@+++@@@+++@@@+++@@@",
"#########XXXooooooooo   @@@++++++@@@++++++@@@",
"#########XXXooooooooo   @@@++++++@@@++++++@@@",
"#########XXXooooooooo   @@@++++++@@@++++++@@@",
"#########XXXooooooooo   @@@+++...+++...+++@@@",
"#########XXXooooooooo   @@@+++...+++...+++@@@",
"#########XXXooooooooo   @@@+++...+++...+++@@@",
"#########   XXXoooooo   @@@+++.........+++@@@",
"#########   XXXoooooo   @@@+++.........+++@@@",
"#########   XXXoooooo   @@@+++.........+++@@@",
"#########         XXXXXX@@@++++++...++++++@@@",
"#########         XXXXXX@@@++++++...++++++@@@",
"#########         XXXXXX@@@++++++...++++++@@@",
"#########XXXXXXXXXXXXXXXXXX@@@+++++++++@@@###",
"#########XXXXXXXXXXXXXXXXXX@@@+++++++++@@@###",
"#########XXXXXXXXXXXXXXXXXX@@@+++++++++@@@###",
"##################            @@@@@@@@@######",
"##################            @@@@@@@@@######",
"##################            @@@@@@@@@######",
"###############               ###############",
"###############               ###############",
"###############               ###############"
};
