/* XPM */
static char *result[] = {
/* columns rows colors chars-per-pixel */
"94 45 8 1 ",
"  c gray50",
". c #B9611B",
"X c #FF6730",
"o c #2AAD30",
"O c #FFC56D",
"+ c #565EF8",
"@ c #C3C3C3",
"# c None",
/* pixels */
"###########################################################oooooooooooooo#####################",
"###########################################################oooooooooooooo#####################",
"###########################################################oooooooooooooo#####################",
"##################################################............ooooooooooooooooo###############",
"##################################################............ooooooooooooooooo###############",
"##################################################............ooooooooooooooooo###############",
"###############################################..................ooooooOOooooooooo############",
"###############################################..................ooooooOOooooooooo############",
"###############################################..................ooooooOOooooooooo############",
"##################################################..................OOOOOooooooooooooooo######",
"##################################################..................OOOOOooooooooooooooo######",
"##################################################..................OOOOOooooooooooooooo######",
"##################################################OOOoooOOOOOO...OOOOOOOO@@@@@@@@@@@@@@@@@@@@@",
"##################################################OOOoooOOOOOO...OOOOOOOO@@@@@@@@@@@@@@@@@@@@@",
"##################################################OOOoooOOOOOO...OOOOOOOO@@@@@@@@@@@@@@@@@@@@@",
"################################++++++######OOOOOOOOO...OOOOOO...OOOOOO..@@@+++++++++++++++@@@",
"################################++++++######OOOOOOOOO...OOOOOO...OOOOOO..@@@+++++++++++++++@@@",
"################################++++++######OOOOOOOOO...OOOOOO...OOOOOO..@@@+++++++++++++++@@@",
"###################################++++++#########OOOOOOOOOOOOOOOOOO.....@@@+++@@@+++@@@+++@@@",
"###################################++++++#########OOOOOOOOOOOOOOOOOO.....@@@+++@@@+++@@@+++@@@",
"###################################++++++#########OOOOOOOOOOOOOOOOOO.....@@@+++@@@+++@@@+++@@@",
"###@@@@@@@@@@@@@@@@@@@@@@@@@@@@@@@@+++OOOOOOOOO...OOOOOOOOOOOOooooooooooo@@@++++++@@@++++++@@@",
"###@@@@@@@@@@@@@@@@@@@@@@@@@@@@@@@@+++OOOOOOOOO...OOOOOOOOOOOOooooooooooo@@@++++++@@@++++++@@@",
"###@@@@@@@@@@@@@@@@@@@@@@@@@@@@@@@@+++OOOOOOOOO...OOOOOOOOOOOOooooooooooo@@@++++++@@@++++++@@@",
"@@@@@@                             +++OOOOOOOOO.........ooooooOOOOOOOOO..@@@+++XXX+++XXX+++@@@",
"@@@@@@                             +++OOOOOOOOO.........ooooooOOOOOOOOO..@@@+++XXX+++XXX+++@@@",
"@@@@@@                             +++OOOOOOOOO.........ooooooOOOOOOOOO..@@@+++XXX+++XXX+++@@@",
"###@@@@@@@@@@@@@@@@@@@@@@@@@@@@@@@@++++++OOOOOO.........ooooooOOOOOOOOO..@@@+++XXXXXXXXX+++@@@",
"###@@@@@@@@@@@@@@@@@@@@@@@@@@@@@@@@++++++OOOOOO.........ooooooOOOOOOOOO..@@@+++XXXXXXXXX+++@@@",
"###@@@@@@@@@@@@@@@@@@@@@@@@@@@@@@@@++++++OOOOOO.........ooooooOOOOOOOOO..@@@+++XXXXXXXXX+++@@@",
"###################################++++++###############ooo......OOOOOO..@@@++++++XXX++++++@@@",
"###################################++++++###############ooo......OOOOOO..@@@++++++XXX++++++@@@",
"###################################++++++###############ooo......OOOOOO..@@@++++++XXX++++++@@@",
"################################++++++##################...oooooo........ooo@@@+++++++++@@@###",
"################################++++++##################...oooooo........ooo@@@+++++++++@@@###",
"################################++++++##################...oooooo........ooo@@@+++++++++@@@###",
"#####################################################oooooo......oooooooooooooo@@@@@@@@@######",
"#####################################################oooooo......oooooooooooooo@@@@@@@@@######",
"#####################################################oooooo......oooooooooooooo@@@@@@@@@######",
"##################################################......ooooooooooooooooooooooo.........######",
"##################################################......ooooooooooooooooooooooo.........######",
"##################################################......ooooooooooooooooooooooo.........######",
"###############################################............#################.........#########",
"###############################################............#################.........#########",
"###############################################............#################.........#########"
};
