/* XPM */
static char *result[] = {
/* columns rows colors chars-per-pixel */
"54 51 7 1 ",
"  c #B9611B",
". c #FF6730",
"X c #2AAD30",
"o c #FFC56D",
"O c #565EF8",
"+ c #C3C3C3",
"@ c None",
/* pixels */
"@@@@@@   @@@@@@XXXXXXXXXXXXXXXXXX@@@@@@@@@@@@@@@@@@@@@",
"@@@@@@   @@@@@@XXXXXXXXXXXXXXXXXX@@@@@@@@@@@@@@@@@@@@@",
"@@@@@@   @@@@@@XXXXXXXXXXXXXXXXXX@@@@@@@@@@@@@@@@@@@@@",
"@@@               XXXXXXXXXXXXXXXXXXXXXXXX@@@@@@@@@@@@",
"@@@               XXXXXXXXXXXXXXXXXXXXXXXX@@@@@@@@@@@@",
"@@@               XXXXXXXXXXXXXXXXXXXXXXXX@@@@@@@@@@@@",
"@@@                  XXXXXXoooXXXXXXXXXXXXXXX@@@@@@@@@",
"@@@                  XXXXXXoooXXXXXXXXXXXXXXX@@@@@@@@@",
"@@@                  XXXXXXoooXXXXXXXXXXXXXXX@@@@@@@@@",
"@@@@@@                  ooooooXXXXXXXXX@@@@@@@@@@@@@@@",
"@@@@@@                  ooooooXXXXXXXXX@@@@@@@@@@@@@@@",
"@@@@@@                  ooooooXXXXXXXXX@@@@@@@@@@@@@@@",
"@@@@@@oooXXXoooooo   oooooooooXXXXXX@@@@@@@@@@@@@@@@@@",
"@@@@@@oooXXXoooooo   oooooooooXXXXXX@@@@@@@@@@@@@@@@@@",
"@@@@@@oooXXXoooooo   oooooooooXXXXXX@@@@@@@@@@@@@@@@@@",
"ooooooooo   oooooo   oooooo+++++++++++++++++++++@@@@@@",
"ooooooooo   oooooo   oooooo+++++++++++++++++++++@@@@@@",
"ooooooooo   oooooo   oooooo+++++++++++++++++++++@@@@@@",
"@@@@@@oooooooooooooooooo   +++OOOOOOOOOOOOOOOOOO+++@@@",
"@@@@@@oooooooooooooooooo   +++OOOOOOOOOOOOOOOOOO+++@@@",
"@@@@@@oooooooooooooooooo   +++OOOOOOOOOOOOOOOOOO+++@@@",
"@@@@@@ooooooooooooXXXXXXXXX+++OOO+++OOO......OOOOOO+++",
"@@@@@@ooooooooooooXXXXXXXXX+++OOO+++OOO......OOOOOO+++",
"@@@@@@ooooooooooooXXXXXXXXX+++OOO+++OOO......OOOOOO+++",
"@@@@@@@@@@@@XXXooooooooo   +++OOOOOO+++OOO......OOO+++",
"@@@@@@@@@@@@XXXooooooooo   +++OOOOOO+++OOO......OOO+++",
"@@@@@@@@@@@@XXXooooooooo   +++OOOOOO+++OOO......OOO+++",
"@@@@@@@@@XXXXXXooooooooo   +++OOO+++OOO......OOOOOO+++",
"@@@@@@@@@XXXXXXooooooooo   +++OOO+++OOO......OOOOOO+++",
"@@@@@@@@@XXXXXXooooooooo   +++OOO+++OOO......OOOOOO+++",
"@@@@@@@@@XXXXXXXXXoooooo   +++OOOOOOOOOOOOOOOOOO+++@@@",
"@@@@@@@@@XXXXXXXXXoooooo   +++OOOOOOOOOOOOOOOOOO+++@@@",
"@@@@@@@@@XXXXXXXXXoooooo   +++OOOOOOOOOOOOOOOOOO+++@@@",
"@@@   @@@      XXXXXXXXXXXX+++++++++++++++++++++@@@@@@",
"@@@   @@@      XXXXXXXXXXXX+++++++++++++++++++++@@@@@@",
"@@@   @@@      XXXXXXXXXXXX+++++++++++++++++++++@@@@@@",
"@@@      XXX               XXXXXXXXX@@@@@@@@@@@@@@@@@@",
"@@@      XXX               XXXXXXXXX@@@@@@@@@@@@@@@@@@",
"@@@      XXX               XXXXXXXXX@@@@@@@@@@@@@@@@@@",
"@@@         XXXXXXXXXXXXXXXXXXXXXXXXXXX@@@@@@@@@@@@@@@",
"@@@         XXXXXXXXXXXXXXXXXXXXXXXXXXX@@@@@@@@@@@@@@@",
"@@@         XXXXXXXXXXXXXXXXXXXXXXXXXXX@@@@@@@@@@@@@@@",
"@@@         @@@XXXXXXXXXXXXXXX      @@@@@@@@@@@@@@@@@@",
"@@@         @@@XXXXXXXXXXXXXXX      @@@@@@@@@@@@@@@@@@",
"@@@         @@@XXXXXXXXXXXXXXX      @@@@@@@@@@@@@@@@@@",
"@@@@@@@@@@@@@@@@@@@@@@@@@@@            @@@@@@@@@@@@@@@",
"@@@@@@@@@@@@@@@@@@@@@@@@@@@            @@@@@@@@@@@@@@@",
"@@@@@@@@@@@@@@@@@@@@@@@@@@@            @@@@@@@@@@@@@@@",
"@@@@@@@@@@@@@@@@@@@@@@@@@@@@@@@@@      @@@@@@@@@@@@@@@",
"@@@@@@@@@@@@@@@@@@@@@@@@@@@@@@@@@      @@@@@@@@@@@@@@@",
"@@@@@@@@@@@@@@@@@@@@@@@@@@@@@@@@@      @@@@@@@@@@@@@@@"
};
