/* XPM */
static char *result[] = {
/* columns rows colors chars-per-pixel */
"84 45 8 1 ",
"  c gray50",
". c #B9611B",
"X c #FF6730",
"o c #2AAD30",
"O c #FFC56D",
"+ c #565EF8",
"@ c #C3C3C3",
"# c None",
/* pixels */
"################################################ooooooooooooooo#####################",
"################################################ooooooooooooooo#####################",
"################################################ooooooooooooooo#####################",
"#######################################............oooooooooooooooooo###############",
"#######################################............oooooooooooooooooo###############",
"#######################################............oooooooooooooooooo###############",
"####################################..................ooooooOOOooooooooo############",
"####################################..................ooooooOOOooooooooo############",
"####################################..................ooooooOOOooooooooo############",
"#######################################..................OOOOOOooooooooooooooo######",
"#######################################..................OOOOOOooooooooooooooo######",
"#######################################..................OOOOOOooooooooooooooo######",
"#######################################OOOoooOOOOOO...OOOOOOOOO@@@@@@@@@@@@@@@@@@@@@",
"#######################################OOOoooOOOOOO...OOOOOOOOO@@@@@@@@@@@@@@@@@@@@@",
"#######################################OOOoooOOOOOO...OOOOOOOOO@@@@@@@@@@@@@@@@@@@@@",
"#################################OOOOOOOOO...OOOOOO...OOOOOO...@@@+++++++++++++++@@@",
"#################################OOOOOOOOO...OOOOOO...OOOOOO...@@@+++++++++++++++@@@",
"#################################OOOOOOOOO...OOOOOO...OOOOOO...@@@+++++++++++++++@@@",
"####################################+++OOOOOOOOOOOOOOOOOO......@@@+++@@@+++@@@+++@@@",
"####################################+++OOOOOOOOOOOOOOOOOO......@@@+++@@@+++@@@+++@@@",
"####################################+++OOOOOOOOOOOOOOOOOO......@@@+++@@@+++@@@+++@@@",
"###@@@@@@@@@@@@@@@@@@@@@@@@@@@@@@@@@+++OOOOOOOOOOOOoooooooooooo@@@++++++@@@++++++@@@",
"###@@@@@@@@@@@@@@@@@@@@@@@@@@@@@@@@@+++OOOOOOOOOOOOoooooooooooo@@@++++++@@@++++++@@@",
"###@@@@@@@@@@@@@@@@@@@@@@@@@@@@@@@@@+++OOOOOOOOOOOOoooooooooooo@@@++++++@@@++++++@@@",
"@@@@@@                              +++OOOOOOooooooOOOOOOOOO...@@@+++XXX+++XXX+++@@@",
"@@@@@@                              +++OOOOOOooooooOOOOOOOOO...@@@+++XXX+++XXX+++@@@",
"@@@@@@                              +++OOOOOOooooooOOOOOOOOO...@@@+++XXX+++XXX+++@@@",
"###@@@@@@@@@@@@@@@@@@@@@@@@@@@@@@@@@++++++OOOooooooOOOOOOOOO...@@@+++XXXXXXXXX+++@@@",
"###@@@@@@@@@@@@@@@@@@@@@@@@@@@@@@@@@++++++OOOooooooOOOOOOOOO...@@@+++XXXXXXXXX+++@@@",
"###@@@@@@@@@@@@@@@@@@@@@@@@@@@@@@@@@++++++OOOooooooOOOOOOOOO...@@@+++XXXXXXXXX+++@@@",
"####################################++++++###ooo......OOOOOO...@@@++++++XXX++++++@@@",
"####################################++++++###ooo......OOOOOO...@@@++++++XXX++++++@@@",
"####################################++++++###ooo......OOOOOO...@@@++++++XXX++++++@@@",
"#################################++++++######...oooooo.........ooo@@@+++++++++@@@###",
"#################################++++++######...oooooo.........ooo@@@+++++++++@@@###",
"#################################++++++######...oooooo.........ooo@@@+++++++++@@@###",
"##########################################oooooo......ooooooooooooooo@@@@@@@@@######",
"##########################################oooooo......ooooooooooooooo@@@@@@@@@######",
"##########################################oooooo......ooooooooooooooo@@@@@@@@@######",
"#######################################......oooooooooooooooooooooooo.........######",
"#######################################......oooooooooooooooooooooooo.........######",
"#######################################......oooooooooooooooooooooooo.........######",
"####################################............##################.........#########",
"####################################............##################.........#########",
"####################################............##################.........#########"
};
