/* XPM */
static char *result[] = {
/* columns rows colors chars-per-pixel */
"69 51 7 1 ",
"  c #B9611B",
". c #2AAD30",
"X c #FFC56D",
"o c #565EF8",
"O c #00A8F3",
"+ c #C3C3C3",
"@ c None",
/* pixels */
"@@@@@@@@@@@@@@@@@@@@@@@@@@@ooo@@@@@@@@@@@@@@@@@@@@@@@@@@@@@@@@@@@@@@@",
"@@@@@@@@@@@@@@@@@@@@@@@@@@@ooo@@@@@@@@@@@@@@@@@@@@@@@@@@@@@@@@@@@@@@@",
"@@@@@@@@@@@@@@@@@@@@@@@@@@@ooo@@@@@@@@@@@@@@@@@@@@@@@@@@@@@@@@@@@@@@@",
"@@@@@@@@@@@@@@@@@@@@@@@@oooooo@@@@@@@@@@@@............@@@@@@@@@@@@@@@",
"@@@@@@@@@@@@@@@@@@@@@@@@oooooo@@@@@@@@@@@@............@@@@@@@@@@@@@@@",
"@@@@@@@@@@@@@@@@@@@@@@@@oooooo@@@@@@@@@@@@............@@@@@@@@@@@@@@@",
"@@@@@@@@@@@@@@@@@@@@@oooooo+++@@@            ...............@@@@@@@@@",
"@@@@@@@@@@@@@@@@@@@@@oooooo+++@@@            ...............@@@@@@@@@",
"@@@@@@@@@@@@@@@@@@@@@oooooo+++@@@            ...............@@@@@@@@@",
"@@@@@@@@@@@@@@@@@@@@@oooooo+++                  ......XXX.........@@@",
"@@@@@@@@@@@@@@@@@@@@@oooooo+++                  ......XXX.........@@@",
"@@@@@@@@@@@@@@@@@@@@@oooooo+++                  ......XXX.........@@@",
"@@@@@@@@@@@@@@@@@@oooooo@@@@@@+++                  XXXXXX............",
"@@@@@@@@@@@@@@@@@@oooooo@@@@@@+++                  XXXXXX............",
"@@@@@@@@@@@@@@@@@@oooooo@@@@@@+++                  XXXXXX............",
"@@@@@@@@@@@@@@@@@@oooooo@@@@@@+++XXX...XXXXXX   XXXXXXXXX......@@@...",
"@@@@@@@@@@@@@@@@@@oooooo@@@@@@+++XXX...XXXXXX   XXXXXXXXX......@@@...",
"@@@@@@@@@@@@@@@@@@oooooo@@@@@@+++XXX...XXXXXX   XXXXXXXXX......@@@...",
"@@@@@@++++++@@@@@@oooooo@@@XXXXXX+++   XXXXXX   XXXXXX      ...++++++",
"@@@@@@++++++@@@@@@oooooo@@@XXXXXX+++   XXXXXX   XXXXXX      ...++++++",
"@@@@@@++++++@@@@@@oooooo@@@XXXXXX+++   XXXXXX   XXXXXX      ...++++++",
"+++++++++OOOOOOOOOOOOOOOOOOOOOOOO+++XXXXXXXXX               oooooo+++",
"+++++++++OOOOOOOOOOOOOOOOOOOOOOOO+++XXXXXXXXX               oooooo+++",
"+++++++++OOOOOOOOOOOOOOOOOOOOOOOO+++XXXXXXXXX               oooooo+++",
"@@@@@@++++++XXXXXXoooXXX         +++XXXXXXXXX                  ooo+++",
"@@@@@@++++++XXXXXXoooXXX         +++XXXXXXXXX                  ooo+++",
"@@@@@@++++++XXXXXXoooXXX         +++XXXXXXXXX                  ooo+++",
"@@@@@@@@@@@@@@@XXXXXXooo      +++      XXXXXX               oooooo+++",
"@@@@@@@@@@@@@@@XXXXXXooo      +++      XXXXXX               oooooo+++",
"@@@@@@@@@@@@@@@XXXXXXooo      +++      XXXXXX               oooooo+++",
"@@@@@@@@@@@@@@@XXXXXXooo      +++   ........................oooooo+++",
"@@@@@@@@@@@@@@@XXXXXXooo      +++   ........................oooooo+++",
"@@@@@@@@@@@@@@@XXXXXXooo      +++   ........................oooooo+++",
"@@@@@@@@@@@@@@@@@@@@@oooooo+++@@@@@@         ...............oooooo+++",
"@@@@@@@@@@@@@@@@@@@@@oooooo+++@@@@@@         ...............oooooo+++",
"@@@@@@@@@@@@@@@@@@@@@oooooo+++@@@@@@         ...............oooooo+++",
"@@@@@@@@@@@@@@@@@@@@@oooooo+++@@@@@@   ...                  ooo++++++",
"@@@@@@@@@@@@@@@@@@@@@oooooo+++@@@@@@   ...                  ooo++++++",
"@@@@@@@@@@@@@@@@@@@@@oooooo+++@@@@@@   ...                  ooo++++++",
"@@@@@@@@@@@@@@@@@@@@@@@@oooooo@@@...         ..................+++@@@",
"@@@@@@@@@@@@@@@@@@@@@@@@oooooo@@@...         ..................+++@@@",
"@@@@@@@@@@@@@@@@@@@@@@@@oooooo@@@...         ..................+++@@@",
"@@@@@@@@@@@@@@@@@@@@@@@@@@@ooo@@@.................................@@@",
"@@@@@@@@@@@@@@@@@@@@@@@@@@@ooo@@@.................................@@@",
"@@@@@@@@@@@@@@@@@@@@@@@@@@@ooo@@@.................................@@@",
"@@@@@@@@@@@@@@@@@@@@@@@@@@@@@@@@@@@@         @@@@@@@@@         @@@@@@",
"@@@@@@@@@@@@@@@@@@@@@@@@@@@@@@@@@@@@         @@@@@@@@@         @@@@@@",
"@@@@@@@@@@@@@@@@@@@@@@@@@@@@@@@@@@@@         @@@@@@@@@         @@@@@@",
"@@@@@@@@@@@@@@@@@@@@@@@@@@@@@@@@@            @@@@@@@@@            @@@",
"@@@@@@@@@@@@@@@@@@@@@@@@@@@@@@@@@            @@@@@@@@@            @@@",
"@@@@@@@@@@@@@@@@@@@@@@@@@@@@@@@@@            @@@@@@@@@            @@@"
};
