/* XPM */
static char *result[] = {
/* columns rows colors chars-per-pixel */
"42 45 7 1 ",
"  c #B9611B",
". c #FF6730",
"X c #2AAD30",
"o c #FFC56D",
"O c #565EF8",
"+ c #C3C3C3",
"@ c None",
/* pixels */
"@@@@@@@@@@@@@@@XXXXXXXXXXXXXXX@@@@@@@@@@@@",
"@@@@@@@@@@@@@@@XXXXXXXXXXXXXXX@@@@@@@@@@@@",
"@@@@@@@@@@@@@@@XXXXXXXXXXXXXXX@@@@@@@@@@@@",
"@@@@@@            XXXXXXXXXXXXXXXXXXXXX@@@",
"@@@@@@            XXXXXXXXXXXXXXXXXXXXX@@@",
"@@@@@@            XXXXXXXXXXXXXXXXXXXXX@@@",
"@@@                  XXXXXXoooXXXXXXXXXXXX",
"@@@                  XXXXXXoooXXXXXXXXXXXX",
"@@@                  XXXXXXoooXXXXXXXXXXXX",
"@@@@@@                  ooooooXXXXXX@@@XXX",
"@@@@@@                  ooooooXXXXXX@@@XXX",
"@@@@@@                  ooooooXXXXXX@@@XXX",
"@@@@@@oooXXXoooooo   oooooooooXXXXXX@@@@@@",
"@@@@@@oooXXXoooooo   oooooooooXXXXXX@@@@@@",
"@@@@@@oooXXXoooooo   oooooooooXXXXXX@@@@@@",
"ooooooooo   oooooo   +++++++++++++++++++++",
"ooooooooo   oooooo   +++++++++++++++++++++",
"ooooooooo   oooooo   +++++++++++++++++++++",
"@@@@@@ooooooooooooooo+++OOOOOOOOOOOOOOO+++",
"@@@@@@ooooooooooooooo+++OOOOOOOOOOOOOOO+++",
"@@@@@@ooooooooooooooo+++OOOOOOOOOOOOOOO+++",
"@@@@@@ooooooooooooXXX+++OOO+++OOO+++OOO+++",
"@@@@@@ooooooooooooXXX+++OOO+++OOO+++OOO+++",
"@@@@@@ooooooooooooXXX+++OOO+++OOO+++OOO+++",
"@@@@@@@@@ooooooooo   +++OOOOOO+++OOOOOO+++",
"@@@@@@@@@ooooooooo   +++OOOOOO+++OOOOOO+++",
"@@@@@@@@@ooooooooo   +++OOOOOO+++OOOOOO+++",
"@@@@@@@@@XXXoooooo   +++OOO...OOO...OOO+++",
"@@@@@@@@@XXXoooooo   +++OOO...OOO...OOO+++",
"@@@@@@@@@XXXoooooo   +++OOO...OOO...OOO+++",
"@@@@@@@@@XXXXXXXXX   +++OOO.........OOO+++",
"@@@@@@@@@XXXXXXXXX   +++OOO.........OOO+++",
"@@@@@@@@@XXXXXXXXX   +++OOO.........OOO+++",
"@@@@@@@@@   XXXXXXXXX+++OOOOOO...OOOOOO+++",
"@@@@@@@@@   XXXXXXXXX+++OOOOOO...OOOOOO+++",
"@@@@@@@@@   XXXXXXXXX+++OOOOOO...OOOOOO+++",
"@@@@@@XXX            XXX+++OOOOOOOOO+++   ",
"@@@@@@XXX            XXX+++OOOOOOOOO+++   ",
"@@@@@@XXX            XXX+++OOOOOOOOO+++   ",
"@@@      XXXXXXXXXXXXXXXXXX+++++++++      ",
"@@@      XXXXXXXXXXXXXXXXXX+++++++++      ",
"@@@      XXXXXXXXXXXXXXXXXX+++++++++      ",
"@@@@@@         @@@@@@@@@@@@@@@         @@@",
"@@@@@@         @@@@@@@@@@@@@@@         @@@",
"@@@@@@         @@@@@@@@@@@@@@@         @@@"
};
