/* XPM */
static char *result[] = {
/* columns rows colors chars-per-pixel */
"48 48 7 1 ",
"  c #B9611B",
". c #FF6730",
"X c #2AAD30",
"o c #FFC56D",
"O c #565EF8",
"+ c #C3C3C3",
"@ c None",
/* pixels */
"@@@@@@@@@@@@@@@XXXXXXXXXXXX@@@@@@@@@@@@@@@@@@@@@",
"@@@@@@@@@@@@@@@XXXXXXXXXXXX@@@@@@@@@@@@@@@@@@@@@",
"@@@@@@@@@@@@@@@XXXXXXXXXXXX@@@@@@@@@@@@@@@@@@@@@",
"@@@@@@            XXXXXXXXXXXXXXX@@@@@@@@@@@@@@@",
"@@@@@@            XXXXXXXXXXXXXXX@@@@@@@@@@@@@@@",
"@@@@@@            XXXXXXXXXXXXXXX@@@@@@@@@@@@@@@",
"@@@                  XXXXXXoooXXXXXXXXX@@@@@@@@@",
"@@@                  XXXXXXoooXXXXXXXXX@@@@@@@@@",
"@@@                  XXXXXXoooXXXXXXXXX@@@@@@@@@",
"@@@@@@                  ooooooXXXXXXXXXXXX@@@@@@",
"@@@@@@                  ooooooXXXXXXXXXXXX@@@@@@",
"@@@@@@                  ooooooXXXXXXXXXXXX@@@@@@",
"@@@@@@oooXXXoooooo   oooooooooXXXXXX@@@XXX@@@@@@",
"@@@@@@oooXXXoooooo   oooooooooXXXXXX@@@XXX@@@@@@",
"@@@@@@oooXXXoooooo   oooooooooXXXXXX@@@XXX@@@@@@",
"ooooooooo   oooooo   oooooo      XXX@@@@@@@@@@@@",
"ooooooooo   oooooo   oooooo      XXX@@@@@@@@@@@@",
"ooooooooo   oooooo   oooooo      XXX@@@@@@@@@@@@",
"@@@@@@oooooooooooooooooo   +++++++++++++++++++++",
"@@@@@@oooooooooooooooooo   +++++++++++++++++++++",
"@@@@@@oooooooooooooooooo   +++++++++++++++++++++",
"@@@@@@ooooooooooooXXXXXXXXX+++OOOOOOOOOOOOOOO+++",
"@@@@@@ooooooooooooXXXXXXXXX+++OOOOOOOOOOOOOOO+++",
"@@@@@@ooooooooooooXXXXXXXXX+++OOOOOOOOOOOOOOO+++",
"@@@@@@@@@@@@XXXXXXXXXXXXXXX+++OOO+++OOO+++OOO+++",
"@@@@@@@@@@@@XXXXXXXXXXXXXXX+++OOO+++OOO+++OOO+++",
"@@@@@@@@@@@@XXXXXXXXXXXXXXX+++OOO+++OOO+++OOO+++",
"@@@@@@@@@XXXXXXooooooooo   +++OOOOOO+++OOOOOO+++",
"@@@@@@@@@XXXXXXooooooooo   +++OOOOOO+++OOOOOO+++",
"@@@@@@@@@XXXXXXooooooooo   +++OOOOOO+++OOOOOO+++",
"@@@@@@@@@XXXXXXooooooooo   +++OOO...OOO...OOO+++",
"@@@@@@@@@XXXXXXooooooooo   +++OOO...OOO...OOO+++",
"@@@@@@@@@XXXXXXooooooooo   +++OOO...OOO...OOO+++",
"@@@@@@@@@   XXXXXXoooooo   +++OOO.........OOO+++",
"@@@@@@@@@   XXXXXXoooooo   +++OOO.........OOO+++",
"@@@@@@@@@   XXXXXXoooooo   +++OOO.........OOO+++",
"@@@@@@@@@            XXXXXX+++OOOOOO...OOOOOO+++",
"@@@@@@@@@            XXXXXX+++OOOOOO...OOOOOO+++",
"@@@@@@@@@            XXXXXX+++OOOOOO...OOOOOO+++",
"@@@@@@@@@XXXXXXXXXXXXXXXXXXXXX+++OOOOOOOOO+++@@@",
"@@@@@@@@@XXXXXXXXXXXXXXXXXXXXX+++OOOOOOOOO+++@@@",
"@@@@@@@@@XXXXXXXXXXXXXXXXXXXXX+++OOOOOOOOO+++@@@",
"@@@@@@@@@@@@         @@@@@@      +++++++++@@@@@@",
"@@@@@@@@@@@@         @@@@@@      +++++++++@@@@@@",
"@@@@@@@@@@@@         @@@@@@      +++++++++@@@@@@",
"@@@@@@@@@            @@@            @@@@@@@@@@@@",
"@@@@@@@@@            @@@            @@@@@@@@@@@@",
"@@@@@@@@@            @@@            @@@@@@@@@@@@"
};
