/* XPM */
static char *result[] = {
/* columns rows colors chars-per-pixel */
"60 51 7 1 ",
"  c #B9611B",
". c #2AAD30",
"X c #FFC56D",
"o c #565EF8",
"O c #00A8F3",
"+ c #C3C3C3",
"@ c None",
/* pixels */
"@@@@@@@@@@@@@@@@@@ooo@@@@@@@@@@@@@@@@@@@@@@@@@@@@@@@@@@@@@@@",
"@@@@@@@@@@@@@@@@@@ooo@@@@@@@@@@@@@@@@@@@@@@@@@@@@@@@@@@@@@@@",
"@@@@@@@@@@@@@@@@@@ooo@@@@@@@@@@@@@@@@@@@@@@@@@@@@@@@@@@@@@@@",
"@@@@@@@@@@@@@@@oooooo@@@@@@@@@............@@@@@@@@@@@@@@@@@@",
"@@@@@@@@@@@@@@@oooooo@@@@@@@@@............@@@@@@@@@@@@@@@@@@",
"@@@@@@@@@@@@@@@oooooo@@@@@@@@@............@@@@@@@@@@@@@@@@@@",
"@@@@@@@@@@@@oooooo+++            ...............@@@@@@@@@@@@",
"@@@@@@@@@@@@oooooo+++            ...............@@@@@@@@@@@@",
"@@@@@@@@@@@@oooooo+++            ...............@@@@@@@@@@@@",
"@@@@@@@@@oooooo@@@   +++            ......XXX.........@@@@@@",
"@@@@@@@@@oooooo@@@   +++            ......XXX.........@@@@@@",
"@@@@@@@@@oooooo@@@   +++            ......XXX.........@@@@@@",
"@@@@@@@@@oooooo@@@@@@   +++            XXXXXX............@@@",
"@@@@@@@@@oooooo@@@@@@   +++            XXXXXX............@@@",
"@@@@@@@@@oooooo@@@@@@   +++            XXXXXX............@@@",
"@@@@@@@@@ooo@@@@@@@@@XXX...+++XXX   XXXXXXXXX......@@@...@@@",
"@@@@@@@@@ooo@@@@@@@@@XXX...+++XXX   XXXXXXXXX......@@@...@@@",
"@@@@@@@@@ooo@@@@@@@@@XXX...+++XXX   XXXXXXXXX......@@@...@@@",
"@@@@@@++++++@@@XXXXXXXXX   XXX+++   XXXXXX      ...@@@@@@@@@",
"@@@@@@++++++@@@XXXXXXXXX   XXX+++   XXXXXX      ...@@@@@@@@@",
"@@@@@@++++++@@@XXXXXXXXX   XXX+++   XXXXXX      ...@@@@@@@@@",
"+++++++++OOOOOOOOOOOOOOOOOOOOOOOO+++XXXXXXXXX            @@@",
"+++++++++OOOOOOOOOOOOOOOOOOOOOOOO+++XXXXXXXXX            @@@",
"+++++++++OOOOOOOOOOOOOOOOOOOOOOOO+++XXXXXXXXX            @@@",
"XXXXXX++++++         XXXXXXXXX+++...XXXXXXXXX               ",
"XXXXXX++++++         XXXXXXXXX+++...XXXXXXXXX               ",
"XXXXXX++++++         XXXXXXXXX+++...XXXXXXXXX               ",
"@@@XXXXXXooo               +++.........XXXXXX            @@@",
"@@@XXXXXXooo               +++.........XXXXXX            @@@",
"@@@XXXXXXooo               +++.........XXXXXX            @@@",
"@@@XXXXXXoooooo         +++........................@@@@@@@@@",
"@@@XXXXXXoooooo         +++........................@@@@@@@@@",
"@@@XXXXXXoooooo         +++........................@@@@@@@@@",
"@@@@@@@@@oooooo@@@@@@+++         ...............@@@@@@@@@@@@",
"@@@@@@@@@oooooo@@@@@@+++         ...............@@@@@@@@@@@@",
"@@@@@@@@@oooooo@@@@@@+++         ...............@@@@@@@@@@@@",
"@@@@@@@@@@@@oooooo+++      ...                  @@@@@@@@@@@@",
"@@@@@@@@@@@@oooooo+++      ...                  @@@@@@@@@@@@",
"@@@@@@@@@@@@oooooo+++      ...                  @@@@@@@@@@@@",
"@@@@@@@@@@@@@@@oooooo...         ..................@@@@@@@@@",
"@@@@@@@@@@@@@@@oooooo...         ..................@@@@@@@@@",
"@@@@@@@@@@@@@@@oooooo...         ..................@@@@@@@@@",
"@@@@@@@@@@@@@@@@@@ooo.................................@@@@@@",
"@@@@@@@@@@@@@@@@@@ooo.................................@@@@@@",
"@@@@@@@@@@@@@@@@@@ooo.................................@@@@@@",
"@@@@@@@@@@@@@@@@@@         @@@@@@@@@@@@@@@@@@         @@@@@@",
"@@@@@@@@@@@@@@@@@@         @@@@@@@@@@@@@@@@@@         @@@@@@",
"@@@@@@@@@@@@@@@@@@         @@@@@@@@@@@@@@@@@@         @@@@@@",
"@@@@@@@@@@@@@@@            @@@@@@@@@@@@@@@@@@            @@@",
"@@@@@@@@@@@@@@@            @@@@@@@@@@@@@@@@@@            @@@",
"@@@@@@@@@@@@@@@            @@@@@@@@@@@@@@@@@@            @@@"
};
